<svg width="18" height="21" viewBox="0 0 18 21" fill="none" xmlns="http://www.w3.org/2000/svg">
<path d="M16.9602 7.96039C16.2902 7.22039 15.2802 6.79039 13.8802 6.64039V5.88039C13.8802 4.51039 13.3002 3.19039 12.2802 2.27039C11.2502 1.33039 9.91023 0.890389 8.52023 1.02039C6.13023 1.25039 4.12023 3.56039 4.12023 6.06039V6.64039C2.72023 6.79039 1.71023 7.22039 1.04023 7.96039C0.070234 9.04039 0.100234 10.4804 0.210234 11.4804L0.910234 17.0504C1.12023 19.0004 1.91023 21.0004 6.21023 21.0004H11.7902C16.0902 21.0004 16.8802 19.0004 17.0902 17.0604L17.7902 11.4704C17.9002 10.4804 17.9202 9.04039 16.9602 7.96039ZM8.66023 2.41039C9.66023 2.32039 10.6102 2.63039 11.3502 3.30039C12.0802 3.96039 12.4902 4.90039 12.4902 5.88039V6.58039H5.51023V6.06039C5.51023 4.28039 6.98023 2.57039 8.66023 2.41039ZM5.42023 12.1504H5.41023C4.86023 12.1504 4.41023 11.7004 4.41023 11.1504C4.41023 10.6004 4.86023 10.1504 5.41023 10.1504C5.97023 10.1504 6.42023 10.6004 6.42023 11.1504C6.42023 11.7004 5.97023 12.1504 5.42023 12.1504ZM12.4202 12.1504H12.4102C11.8602 12.1504 11.4102 11.7004 11.4102 11.1504C11.4102 10.6004 11.8602 10.1504 12.4102 10.1504C12.9702 10.1504 13.4202 10.6004 13.4202 11.1504C13.4202 11.7004 12.9702 12.1504 12.4202 12.1504Z" fill="black" fill-opacity="1"/>
</svg>
