<svg width="18" height="18" viewBox="0 0 18 18" fill="none" xmlns="http://www.w3.org/2000/svg">
<g id="noun-delivery-3918089 1">
<g id="Group">
<g id="Group_2">
<g id="Group_3">
<path id="Vector" d="M3.07795 10.6919H0.899951C0.647951 10.6919 0.449951 10.8899 0.449951 11.1419C0.449951 11.3939 0.647951 11.5919 0.899951 11.5919H3.07795C3.32995 11.5919 3.52795 11.3939 3.52795 11.1419C3.52795 10.8899 3.32995 10.6919 3.07795 10.6919Z" fill="black"/>
<path id="Vector_2" d="M3.07793 9.01807H1.45793C1.20593 9.01807 1.00793 9.21607 1.00793 9.46807C1.00793 9.72007 1.20593 9.91807 1.45793 9.91807H3.09593C3.34793 9.91807 3.54593 9.72007 3.54593 9.46807C3.52793 9.21607 3.32993 9.01807 3.07793 9.01807Z" fill="black"/>
<path id="Vector_3" d="M3.07797 7.36182H1.99797C1.74597 7.36182 1.54797 7.55982 1.54797 7.81182C1.54797 8.06382 1.74597 8.26182 1.99797 8.26182H3.07797C3.32997 8.26182 3.52797 8.06382 3.52797 7.81182C3.52797 7.55982 3.32997 7.36182 3.07797 7.36182Z" fill="black"/>
<path id="Vector_4" d="M16.542 9.01792L15.462 8.83792L14.814 6.89392C14.652 6.40792 14.184 6.06592 13.68 6.06592H9.37798C9.37798 6.37192 9.32398 6.67792 9.23398 6.96592H11.628V9.23392C11.628 9.48592 11.826 9.68392 12.078 9.68392H15.084L16.398 9.89992C16.542 9.91792 16.65 10.0439 16.65 10.1879V11.6279C16.65 11.7899 16.524 11.9339 16.344 11.9339H15.912C15.642 11.3939 15.102 11.0339 14.454 11.0339C13.824 11.0339 13.266 11.4119 12.996 11.9339H8.98198C8.71198 11.3939 8.17198 11.0339 7.52398 11.0339C6.89398 11.0339 6.33598 11.4119 6.06598 11.9339H5.63398C5.47198 11.9339 5.32798 11.8079 5.32798 11.6279V9.01792C5.00398 8.92792 4.69798 8.76592 4.42798 8.56792V11.6459C4.42798 12.3119 4.96798 12.8519 5.63398 12.8519H5.90398C5.99398 13.6619 6.67798 14.2919 7.52398 14.2919C8.36998 14.2919 9.05398 13.6619 9.14398 12.8519H12.834C12.924 13.6619 13.608 14.2919 14.454 14.2919C15.282 14.2919 15.984 13.6619 16.074 12.8519H16.362C17.028 12.8519 17.568 12.3119 17.568 11.6459V10.2059C17.55 9.61192 17.118 9.10792 16.542 9.01792ZM12.528 8.78392V6.98392H13.68C13.806 6.98392 13.932 7.07392 13.968 7.18192L14.508 8.78392H12.528ZM7.52398 13.3919C7.12798 13.3919 6.80398 13.0679 6.80398 12.6719C6.80398 12.2759 7.12798 11.9519 7.52398 11.9519C7.91998 11.9519 8.24398 12.2759 8.24398 12.6719C8.24398 13.0679 7.93798 13.3919 7.52398 13.3919ZM14.454 13.3919C14.058 13.3919 13.734 13.0679 13.734 12.6719C13.734 12.2759 14.058 11.9519 14.454 11.9519C14.85 11.9519 15.174 12.2759 15.174 12.6719C15.174 13.0679 14.85 13.3919 14.454 13.3919Z" fill="black"/>
<path id="Vector_5" d="M6.24595 8.33394C7.52395 8.33394 8.56795 7.28994 8.56795 6.01194C8.56795 4.73394 7.52395 3.68994 6.24595 3.68994C4.96795 3.68994 3.92395 4.73394 3.92395 6.01194C3.92395 7.28994 4.96795 8.33394 6.24595 8.33394ZM5.88595 4.80594C5.88595 4.60794 6.04795 4.44594 6.24595 4.44594C6.44395 4.44594 6.60595 4.60794 6.60595 4.80594V5.65194H7.14595C7.34395 5.65194 7.50595 5.81394 7.50595 6.01194C7.50595 6.20994 7.34395 6.37194 7.14595 6.37194H6.26395C6.06595 6.37194 5.90395 6.20994 5.90395 6.01194V4.80594H5.88595Z" fill="black"/>
</g>
</g>
</g>
</g>
</svg>
