<svg width="22" height="22" viewBox="0 0 22 22" fill="none" xmlns="http://www.w3.org/2000/svg">
<path d="M5.04175 18.3338C5.80115 18.3338 6.41675 18.9493 6.41675 19.7088C6.41675 20.4682 5.80115 21.0838 5.04175 21.0838C4.28237 21.0838 3.66675 20.4682 3.66675 19.7088C3.66675 18.9493 4.28237 18.3338 5.04175 18.3338ZM16.9585 18.3338C17.7178 18.3338 18.3335 18.9493 18.3335 19.7088C18.3335 20.4682 17.7178 21.0838 16.9585 21.0838C16.199 21.0838 15.5835 20.4682 15.5835 19.7088C15.5835 18.9493 16.199 18.3338 16.9585 18.3338ZM1.9907 1.61133L5.4995 5.12033V15.5832L18.3335 15.5838V17.4171H4.58342C4.07716 17.4171 3.66675 17.0066 3.66675 16.5005L3.66617 5.87933L0.694336 2.9077L1.9907 1.61133ZM14.6668 2.75041C15.173 2.75041 15.5835 3.16082 15.5835 3.66708L15.5828 5.49983L18.3271 5.50041C18.8369 5.50041 19.2501 5.91811 19.2501 6.41286V13.7547C19.2501 14.2586 18.8376 14.6671 18.3271 14.6671H7.3397C6.82997 14.6671 6.41675 14.2494 6.41675 13.7547V6.41286C6.41675 5.90894 6.82921 5.50041 7.3397 5.50041L10.0828 5.49983L10.0835 3.66708C10.0835 3.16082 10.4939 2.75041 11.0001 2.75041H14.6668ZM9.16617 7.33316L8.25009 7.33375V12.8338L9.16617 12.8332V7.33316ZM14.6662 7.33316H10.9995V12.8332H14.6662V7.33316ZM17.4168 7.33375L16.4995 7.33316V12.8332L17.4168 12.8338V7.33375ZM13.7501 4.58375H11.9168V5.50041H13.7501V4.58375Z" fill="black"/>
</svg>
